<svg xmlns="http://www.w3.org/2000/svg" xmlns:xlink="http://www.w3.org/1999/xlink" width="128" zoomAndPan="magnify" viewBox="0 0 96 95.999999" height="128" preserveAspectRatio="xMidYMid meet" version="1.0"><defs><clipPath id="be27fe82c1"><path d="M 48 0 C 21.492188 0 0 21.492188 0 48 C 0 74.507812 21.492188 96 48 96 C 74.507812 96 96 74.507812 96 48 C 96 21.492188 74.507812 0 48 0 Z M 48 0 " clip-rule="nonzero"/></clipPath><clipPath id="c44bc0b67d"><path d="M 0 0 L 96 0 L 96 96 L 0 96 Z M 0 0 " clip-rule="nonzero"/></clipPath><clipPath id="a9dcc76ffc"><path d="M 48 0 C 21.492188 0 0 21.492188 0 48 C 0 74.507812 21.492188 96 48 96 C 74.507812 96 96 74.507812 96 48 C 96 21.492188 74.507812 0 48 0 Z M 48 0 " clip-rule="nonzero"/></clipPath><clipPath id="c925fbac78"><rect x="0" width="96" y="0" height="96"/></clipPath><clipPath id="33421fcf55"><path d="M 10.179688 22.660156 L 85.929688 22.660156 L 85.929688 85.660156 L 10.179688 85.660156 Z M 10.179688 22.660156 " clip-rule="nonzero"/></clipPath></defs><g clip-path="url(#be27fe82c1)"><g transform="matrix(1, 0, 0, 1, 0, -0.000000000000008101)"><g clip-path="url(#c925fbac78)"><g clip-path="url(#c44bc0b67d)"><g clip-path="url(#a9dcc76ffc)"><rect x="-21.12" width="138.24" fill="#000000" height="138.239999" y="-21.12" fill-opacity="1"/></g></g></g></g></g><g clip-path="url(#33421fcf55)"><path fill="#ffffff" d="M 62.078125 22.660156 L 48.78125 54.4375 L 35.816406 22.660156 L 10.246094 22.660156 L 36.945312 85.777344 L 59.046875 85.777344 L 85.746094 22.660156 Z M 62.078125 22.660156 " fill-opacity="1" fill-rule="nonzero"/></g></svg>